<?xml version="1.0" standalone="no"?>
<!DOCTYPE svg PUBLIC "-//W3C//DTD SVG 20010904//EN"
 "http://www.w3.org/TR/2001/REC-SVG-20010904/DTD/svg10.dtd">
<svg version="1.0" xmlns="http://www.w3.org/2000/svg"
 width="512.000000pt" height="512.000000pt" viewBox="0 0 512.000000 512.000000"
 preserveAspectRatio="xMidYMid meet">
<metadata>
Created by potrace 1.14, written by Peter Selinger 2001-2017
</metadata>
<g transform="translate(0.000000,512.000000) scale(0.100000,-0.100000)"
fill="#000000" stroke="none">
<path d="M0 4948 c0 -134 3 -169 12 -160 20 20 29 13 26 -20 -2 -24 -8 -33
-20 -32 -17 2 -18 -117 -18 -2367 l0 -2369 833 0 c635 0 836 3 845 12 9 9 12
9 12 0 0 -7 8 -12 18 -12 11 0 24 15 35 40 9 22 21 40 27 40 15 0 13 -9 -11
-46 l-21 -34 54 1 c29 1 45 3 35 6 -9 2 -14 9 -11 14 3 6 -2 19 -12 30 -10 11
-12 19 -5 19 6 0 14 -6 17 -14 6 -14 21 -16 40 -3 17 10 24 -3 14 -29 -12 -30
9 -33 28 -4 7 11 18 20 24 20 9 0 9 -3 0 -12 -7 -7 -12 -16 -12 -20 0 -4 722
-8 1605 -8 l1605 0 0 2560 0 2560 -2035 0 c-1673 0 -2035 -2 -2035 -13 0 -7
-13 -26 -30 -42 -22 -21 -38 -28 -65 -27 -29 1 -35 -2 -35 -19 0 -23 -42 -69
-64 -69 -25 0 -38 34 -25 67 7 19 7 29 0 31 -6 2 -13 19 -17 38 l-6 34 -112
-2 -111 -3 3 -37 c2 -23 12 -48 27 -64 28 -30 32 -69 10 -98 -22 -29 -18 -56
12 -88 25 -26 27 -34 29 -133 1 -96 0 -107 -19 -120 -18 -13 -23 -12 -49 7
-25 17 -34 19 -54 9 -14 -6 -35 -11 -47 -11 -17 0 -26 -9 -36 -35 -7 -19 -10
-44 -6 -55 3 -10 2 -35 -4 -55 -5 -19 -5 -35 -1 -35 5 0 18 -10 30 -22 l20
-22 -21 -19 c-28 -26 -19 -41 27 -42 33 0 39 3 42 23 5 36 32 23 48 -23 18
-52 18 -72 -2 -79 -18 -7 -54 10 -54 25 0 7 -12 8 -30 4 -23 -5 -37 -1 -59 17
-17 13 -41 31 -55 41 -20 14 -25 24 -20 42 4 16 0 26 -13 34 -17 10 -17 12 2
48 30 54 23 83 -20 83 -18 0 -36 -6 -38 -12 -4 -10 -6 -10 -6 0 -1 7 -16 12
-41 12 -49 0 -58 15 -41 70 14 47 62 90 101 90 22 0 29 5 33 28 7 31 -13 52
-49 52 -12 0 -25 7 -28 16 -8 22 -9 21 22 27 15 3 34 17 41 30 7 13 29 32 48
41 34 16 36 16 49 -2 16 -23 58 -34 73 -19 8 8 11 8 11 0 0 -7 -4 -15 -10 -18
-14 -9 -12 -35 3 -35 25 0 40 18 32 36 -14 35 -14 66 1 82 9 8 13 24 11 34 -3
11 1 39 10 63 8 24 13 52 11 60 -5 25 -85 -53 -93 -90 -13 -61 -39 -80 -68
-50 -9 8 -27 15 -41 15 -14 0 -26 4 -26 9 0 13 -58 31 -77 24 -13 -5 -15 -1
-9 28 10 58 13 64 27 61 27 -7 40 -26 34 -49 -4 -19 -1 -23 16 -23 12 0 32 11
45 25 13 14 33 25 44 25 29 0 60 17 88 49 l24 26 -109 3 c-94 2 -109 0 -121
-15 -13 -17 -14 -17 -26 0 -8 10 -27 17 -49 17 -34 0 -35 -1 -28 -27 4 -16 6
-34 4 -41 -3 -7 0 -19 6 -26 7 -8 9 -25 5 -40 -3 -15 -1 -32 6 -41 16 -19 3
-55 -19 -55 -10 0 -35 -13 -56 -30 -39 -31 -52 -35 -72 -22 -19 12 -18 35 1
65 19 27 19 28 -4 52 -44 47 -23 115 36 115 21 0 39 31 26 44 -3 3 -36 6 -74
6 l-68 0 0 -172z m2525 82 c-19 -8 -19 -9 2 -9 12 -1 25 4 28 9 10 15 22 12
27 -7 4 -16 -3 -18 -82 -15 -69 3 -96 -1 -126 -15 -66 -32 -56 -44 35 -41 45
2 81 6 81 9 0 4 11 10 25 13 14 4 25 11 25 16 0 6 5 10 10 10 6 0 8 -10 4 -24
-3 -13 -1 -27 5 -30 18 -11 12 -29 -7 -24 -10 3 -27 -1 -37 -8 -10 -8 -25 -14
-33 -14 -16 0 -42 -24 -42 -38 0 -13 82 -8 120 8 16 7 27 16 24 21 -3 5 -1 9
4 9 16 0 21 -27 12 -59 -6 -23 -5 -29 5 -25 10 4 12 -1 8 -15 -3 -12 -1 -21 5
-21 5 0 12 -11 14 -25 3 -15 1 -25 -6 -25 -15 0 -16 -43 -2 -52 17 -12 24 -9
31 13 4 11 9 18 11 16 11 -11 -19 -53 -37 -52 -26 2 -59 36 -41 42 6 3 12 13
12 23 0 10 5 20 12 22 9 3 9 6 0 12 -8 5 -16 -3 -23 -21 -6 -16 -13 -22 -16
-15 -3 6 -9 12 -15 12 -7 0 -7 -4 -1 -12 18 -23 24 -69 12 -84 -9 -11 -8 -14
5 -14 9 0 16 -7 16 -15 0 -8 -5 -15 -11 -15 -5 0 -7 -4 -4 -10 3 -5 14 -10 23
-10 15 0 15 2 2 10 -8 5 -13 10 -10 11 45 7 59 6 54 -3 -5 -7 0 -9 14 -6 15 4
19 2 15 -8 -3 -9 -13 -12 -24 -9 -11 4 -19 2 -19 -4 0 -5 -8 -11 -17 -14 -12
-2 -7 -7 16 -13 19 -6 36 -15 39 -22 2 -8 -2 -10 -14 -5 -12 4 -15 3 -10 -5 4
-7 2 -12 -3 -12 -6 0 -11 -5 -11 -11 0 -7 10 -9 28 -5 26 6 26 6 8 -9 -19 -14
-17 -15 30 -17 82 -3 119 -5 127 -8 11 -4 26 -7 37 -9 20 -2 9 -21 -12 -22
-23 0 -22 -1 2 -12 23 -10 19 -12 -40 -17 -36 -4 -58 -8 -50 -9 24 -4 -18 -19
-72 -26 -26 -3 -50 -10 -53 -16 -4 -5 -1 -9 5 -9 6 0 9 -4 5 -9 -3 -6 43 -10
117 -10 100 0 123 -3 130 -16 5 -8 13 -13 17 -11 4 3 12 -4 18 -14 10 -14 8
-21 -7 -35 -18 -16 -18 -16 -13 4 8 32 -10 25 -32 -11 -10 -18 -20 -27 -23
-20 -6 19 -20 14 -28 -10 -7 -22 -8 -22 -19 6 l-12 30 -17 -30 -16 -29 5 40 5
40 -19 -42 c-25 -53 -34 -55 -25 -7 4 24 3 35 -3 31 -6 -4 -17 -37 -24 -74
l-13 -68 -8 43 c-11 50 -28 56 -29 10 0 -30 -1 -31 -9 -10 -5 12 -14 22 -21
22 -6 0 -9 -6 -6 -14 7 -18 -22 -56 -29 -38 -8 18 -24 4 -24 -21 0 -18 -2 -19
-10 -7 -8 12 -11 11 -16 -8 -6 -21 -7 -21 -20 -5 -12 17 -13 16 -14 -7 -1 -24
-1 -24 -15 -6 -14 19 -15 19 -15 -6 0 -15 -4 -30 -10 -33 -5 -3 -10 -1 -10 5
0 6 -5 8 -10 5 -7 -4 -6 -13 1 -27 9 -16 8 -19 -3 -12 -7 5 -21 10 -31 11 -15
3 -16 0 -7 -17 9 -16 7 -24 -5 -36 -8 -8 -15 -22 -15 -30 0 -8 -7 -14 -16 -14
-14 0 -14 -3 -4 -15 11 -13 7 -13 -31 0 l-44 16 23 -21 22 -21 -25 -47 c-14
-26 -25 -52 -25 -59 0 -6 -15 -24 -32 -39 -27 -22 -29 -26 -10 -20 24 8 25 6
16 -19 -5 -13 -8 -14 -15 -3 -6 9 -9 3 -10 -17 0 -16 -3 -23 -6 -15 -9 24 -35
50 -44 44 -5 -3 -7 -10 -4 -15 4 -5 1 -9 -4 -9 -14 0 -14 6 -1 30 7 13 6 21
-5 30 -8 7 -15 20 -15 28 0 14 -2 14 -17 -1 -17 -17 -17 -19 -1 -31 12 -9 14
-16 7 -23 -8 -8 -7 -17 1 -33 8 -15 8 -20 1 -16 -10 6 -8 -31 4 -71 2 -6 1
-14 -2 -17 -9 -9 -14 -66 -5 -65 18 3 26 -2 15 -9 -7 -4 -16 -27 -22 -50 -8
-36 -7 -43 5 -38 8 3 14 -1 14 -9 0 -8 -4 -15 -10 -15 -5 0 -10 -4 -10 -9 0
-5 9 -7 20 -4 14 4 20 0 20 -11 0 -9 3 -15 8 -15 17 3 23 -2 15 -13 -13 -22
-12 -38 4 -38 10 0 13 -6 9 -16 -4 -11 1 -18 14 -21 19 -5 20 -6 3 -20 -14
-11 -15 -15 -4 -20 9 -3 10 -8 3 -12 -7 -4 -8 -12 -2 -21 6 -10 12 -11 22 -2
11 8 16 4 24 -24 12 -37 8 -43 -12 -17 -7 10 -16 15 -19 11 -4 -4 0 -15 10
-24 18 -19 13 -64 -9 -76 -19 -11 -12 -52 10 -63 45 -23 46 -26 29 -45 -9 -10
-12 -19 -6 -21 17 -6 18 -54 1 -55 -8 -1 -21 -2 -27 -3 -7 0 -13 -7 -13 -15 0
-13 38 -14 59 -1 19 11 12 -13 -7 -27 -27 -19 -42 -52 -32 -68 5 -8 4 -22 -2
-34 -10 -19 -11 -19 -24 5 -10 18 -13 20 -14 7 0 -9 10 -24 22 -32 l22 -16
-22 0 c-23 0 -30 -14 -12 -25 15 -9 12 -22 -6 -29 -8 -3 -12 -2 -9 4 10 16
-21 11 -35 -5 -11 -13 -10 -14 4 -9 9 3 16 2 16 -4 0 -5 3 -24 6 -41 4 -19 2
-31 -4 -31 -5 0 -8 9 -5 20 3 11 0 20 -6 20 -6 0 -11 -7 -11 -15 0 -8 -5 -15
-11 -15 -5 0 -8 -4 -5 -9 3 -4 -3 -19 -14 -31 -11 -13 -20 -18 -20 -12 0 19
-21 13 -27 -7 -3 -10 -15 -21 -28 -23 -18 -4 -22 -1 -18 11 4 9 10 22 16 29 5
7 5 12 0 12 -5 0 -17 -13 -26 -30 -10 -16 -24 -30 -30 -30 -8 0 -8 -3 1 -9 11
-7 11 -9 -2 -14 -9 -4 -16 -1 -16 5 0 6 -8 4 -18 -5 -14 -13 -21 -14 -30 -5
-9 9 -12 9 -12 -1 0 -7 -6 -11 -13 -8 -7 3 -21 -1 -32 -9 -25 -19 -35 -18 -35
4 0 14 -2 15 -10 2 -14 -22 -61 -13 -138 26 -80 40 -152 47 -152 14 0 -12 -7
-20 -16 -20 -13 0 -13 -2 2 -17 13 -13 42 -20 108 -25 175 -15 209 -19 250
-34 79 -30 180 -54 225 -55 49 -1 148 -16 118 -18 -10 0 -15 -6 -12 -11 4 -6
13 -7 23 -2 19 10 79 9 89 -1 3 -4 17 -7 29 -7 13 0 26 -5 29 -11 4 -6 14 -8
22 -5 8 3 12 2 9 -3 -3 -5 4 -9 17 -9 12 0 38 -3 57 -6 19 -2 39 -5 44 -5 4
-1 5 -8 2 -17 -5 -14 -4 -15 9 -4 13 11 15 8 17 -16 0 -16 1 -35 1 -41 -1 -7
3 -10 9 -7 5 3 6 14 3 25 -4 12 -1 21 10 25 14 6 14 8 -2 20 -16 13 -15 13 10
2 15 -6 30 -22 33 -35 8 -29 22 -30 33 -2 5 16 7 7 7 -29 -1 -43 -3 -47 -12
-30 -10 19 -11 18 -18 -13 -3 -18 -13 -40 -22 -50 -13 -15 -13 -18 1 -32 9
-10 11 -18 5 -22 -5 -3 -10 -1 -10 4 0 17 -26 13 -41 -7 -13 -16 -13 -16 5 -2
18 14 19 13 13 -2 -3 -9 -3 -19 1 -21 4 -2 2 -3 -3 -1 -6 1 -16 -13 -21 -32
-12 -38 1 -47 16 -11 l9 22 0 -22 c1 -13 -7 -24 -19 -28 -11 -3 -20 -11 -20
-16 0 -6 -9 -5 -22 2 -18 10 -20 9 -15 -5 4 -10 1 -16 -8 -16 -7 0 -16 -9 -20
-19 -8 -25 -56 -53 -136 -79 -107 -34 -194 -47 -389 -58 -52 -2 -110 -6 -127
-7 -18 -2 -34 1 -36 6 -2 6 -13 5 -27 -3 -14 -7 -60 -13 -114 -13 -73 0 -104
5 -158 25 -37 14 -70 23 -73 20 -3 -3 -5 -14 -5 -25 0 -17 2 -18 17 -6 12 10
17 11 20 2 2 -7 11 -9 19 -6 19 7 18 -6 -3 -31 -14 -16 -14 -18 -2 -8 19 14
30 6 22 -16 -3 -11 -2 -13 4 -5 11 16 63 28 63 15 0 -6 -9 -14 -20 -17 -11 -3
-20 -11 -20 -16 0 -5 12 -2 26 7 16 11 28 14 32 7 4 -5 31 -22 61 -37 33 -16
49 -21 41 -11 -8 9 -8 15 -2 15 6 0 15 -7 20 -15 4 -9 19 -16 33 -17 35 -1 80
-19 73 -30 -7 -11 46 1 64 15 16 12 16 -5 0 -21 -9 -9 -8 -12 4 -12 25 0 48
11 43 20 -3 5 3 6 14 3 10 -3 21 0 25 5 4 7 21 7 48 0 41 -9 115 -5 168 9 22
6 24 5 11 -10 -20 -25 -76 -31 -150 -18 -45 8 -74 9 -91 2 -22 -9 -23 -13 -4
-10 4 0 11 -5 16 -13 7 -10 11 -10 15 0 7 17 23 15 23 -3 0 -18 -3 -17 37 -6
20 6 35 6 38 0 4 -5 18 -6 32 -3 16 4 28 2 34 -7 7 -12 9 -12 9 0 0 11 3 11
15 1 10 -9 15 -9 15 -1 0 16 47 13 53 -3 4 -10 -2 -16 -16 -19 -16 -3 -13 -5
9 -6 23 -1 33 4 37 18 6 22 77 36 77 14 0 -16 5 -16 31 0 18 10 23 9 27 -2 4
-11 6 -11 13 0 7 11 11 10 24 -6 12 -16 14 -17 9 -3 -3 10 -2 18 2 18 36 0
221 34 301 55 53 14 112 25 130 25 18 0 42 6 53 12 16 10 24 10 41 0 12 -8 18
-9 15 -3 -4 5 -1 13 5 17 12 7 29 -12 29 -33 0 -7 -9 -13 -19 -13 -14 0 -18
-6 -15 -23 2 -12 2 -16 -2 -9 -9 20 -24 14 -36 -15 -9 -22 -12 -24 -15 -11 -4
15 -7 16 -17 5 -7 -7 -15 -19 -19 -27 -4 -12 -6 -11 -6 3 -1 10 -6 15 -11 12
-6 -4 -17 -1 -25 5 -12 10 -15 9 -15 -4 0 -10 5 -14 10 -11 6 3 10 -1 10 -9 0
-10 -6 -13 -16 -9 -8 3 -25 -4 -40 -17 -20 -20 -24 -21 -24 -7 0 27 -19 20
-26 -9 l-7 -27 -12 29 -11 29 -7 -32 c-7 -37 -30 -46 -24 -10 2 12 2 17 0 10
-2 -6 -11 -14 -19 -17 -10 -4 -14 2 -14 20 0 15 -4 23 -10 19 -6 -4 -10 -14
-8 -24 3 -18 -38 -69 -48 -59 -3 3 5 15 17 27 12 11 20 23 17 26 -8 8 -59 -35
-68 -59 -8 -19 -9 -19 -9 7 -1 34 -21 36 -21 2 0 -17 -5 -25 -17 -25 -15 0
-16 2 -3 10 8 5 11 12 8 15 -9 10 -28 -4 -28 -19 0 -8 -18 -17 -42 -21 -61
-12 -73 -13 -165 -16 -46 -1 -83 -7 -83 -12 0 -6 -21 -7 -50 -3 -35 5 -50 3
-50 -5 0 -6 -7 -9 -15 -5 -9 3 -15 0 -15 -10 0 -8 5 -12 10 -9 6 3 10 -1 10
-9 0 -10 9 -16 25 -16 14 0 25 -5 25 -11 0 -5 -4 -7 -10 -4 -5 3 -10 1 -10 -5
0 -7 7 -10 15 -6 8 3 15 1 15 -5 0 -6 -9 -13 -20 -16 -11 -3 -20 -12 -20 -19
0 -8 -6 -14 -12 -15 -10 0 -10 -2 -1 -5 7 -3 9 -12 6 -20 -3 -8 0 -14 7 -14 7
0 10 8 7 20 -3 10 1 24 9 31 8 6 14 8 14 3 0 -5 5 -2 10 6 7 11 10 11 10 2 0
-13 -8 -25 -42 -63 -12 -12 -14 -19 -5 -19 6 0 -1 -11 -17 -23 -17 -14 -26
-29 -22 -35 4 -7 2 -12 -3 -12 -19 0 -12 -22 9 -27 11 -3 20 -10 20 -15 0 -6
-7 -8 -15 -4 -17 6 -19 -3 -5 -38 7 -19 6 -26 -3 -27 -9 0 -9 -2 0 -6 17 -6
46 -69 39 -81 -3 -6 1 -13 10 -16 8 -3 12 -2 9 4 -3 6 -4 10 -1 10 2 0 11 3
19 6 11 4 14 -2 12 -20 -2 -14 0 -25 3 -25 4 1 18 1 31 0 20 -1 21 -3 11 -16
-10 -13 -9 -15 11 -14 13 1 32 -2 42 -6 13 -6 17 -2 17 16 0 26 8 22 13 -7 1
-10 6 -24 10 -31 4 -7 0 -16 -10 -23 -17 -10 -16 -10 2 -8 15 3 19 10 17 31
-1 15 2 27 8 27 5 0 10 -10 10 -22 0 -15 3 -19 8 -11 4 7 13 9 21 4 8 -5 10
-14 6 -21 -6 -9 -4 -11 4 -6 7 5 10 15 6 24 -6 18 11 32 39 32 20 0 20 0 0
-16 -18 -15 -18 -15 4 -9 13 4 22 2 22 -4 0 -6 9 -2 21 10 11 11 24 18 27 14
4 -3 1 -10 -7 -14 -9 -6 -7 -10 8 -14 12 -3 23 -2 26 3 3 4 14 10 26 13 15 4
19 2 15 -9 -4 -12 -1 -14 14 -9 11 4 20 2 20 -4 0 -15 27 -14 32 1 2 6 10 8
17 4 9 -6 8 -11 -6 -21 -10 -8 -14 -17 -9 -22 5 -4 11 -2 13 5 3 6 11 12 19
12 8 0 11 -6 7 -16 -5 -14 -3 -15 15 -5 19 10 22 9 22 -9 0 -32 -1 -35 -13
-32 -7 2 -9 0 -5 -3 4 -4 2 -17 -4 -28 -10 -20 -10 -20 19 1 26 18 33 19 48 8
10 -7 15 -19 12 -27 -4 -10 -6 -9 -6 4 -1 19 -16 23 -26 7 -4 -6 -12 -7 -18
-3 -7 4 -6 -1 2 -10 8 -10 11 -20 7 -24 -3 -3 -6 -1 -6 6 0 7 -5 9 -11 6 -6
-4 -8 -13 -5 -21 3 -9 -8 -23 -29 -37 -37 -24 -49 -45 -15 -27 19 10 20 9 9
-8 -6 -10 -21 -23 -33 -28 -11 -5 -20 -15 -19 -22 2 -7 -2 -12 -7 -12 -6 0
-10 5 -10 10 0 6 -4 10 -10 10 -5 0 -10 -8 -10 -17 0 -15 -1 -15 -12 -1 -11
12 -17 13 -36 3 -13 -7 -19 -16 -14 -19 6 -3 13 -2 17 4 3 5 11 10 17 10 7 0
7 -4 -1 -13 -6 -8 -7 -18 -3 -22 4 -5 -1 -5 -10 -2 -10 3 -20 2 -23 -3 -11
-18 -23 -10 -17 12 l5 21 -21 -21 c-22 -22 -52 -30 -52 -14 0 4 -9 8 -19 8
-11 0 -17 -4 -15 -8 6 -10 1 -10 -20 -2 -9 3 -12 12 -8 22 5 15 4 15 -11 3 -9
-7 -23 -11 -31 -8 -8 3 -22 -3 -31 -13 -16 -18 -16 -20 11 -44 16 -14 23 -26
17 -26 -7 0 -13 5 -13 11 0 5 -5 7 -11 3 -8 -4 -8 -9 0 -17 20 -20 12 -31 -9
-12 -11 10 -18 21 -15 24 2 4 0 13 -6 21 -6 11 -9 8 -9 -12 0 -15 -4 -29 -10
-33 -11 -7 -2 -35 11 -35 5 0 9 7 9 16 0 8 5 12 10 9 15 -10 12 -35 -5 -35 -8
0 -15 -7 -15 -15 0 -8 -4 -15 -10 -15 -5 0 -10 -8 -11 -17 0 -12 -2 -13 -6 -5
-3 7 1 19 8 28 10 12 9 18 -6 32 -10 9 -15 13 -13 7 3 -5 1 -21 -4 -35 l-9
-25 -20 24 c-17 21 -19 21 -20 5 -1 -11 -1 -25 0 -31 1 -7 -2 -13 -7 -13 -5 0
-12 -10 -15 -22 -4 -12 -9 -19 -12 -16 -4 3 -1 16 5 28 6 11 9 26 6 33 -2 7
-5 3 -5 -8 -1 -17 -3 -18 -12 -5 -8 12 -9 10 -4 -7 4 -14 2 -23 -4 -23 -6 0
-11 7 -11 15 0 8 -4 15 -10 15 -5 0 -9 -3 -9 -7 1 -5 1 -19 0 -32 -1 -20 -3
-21 -16 -11 -12 10 -15 10 -15 -2 0 -9 -10 -13 -27 -12 -16 1 -34 -3 -41 -9
-7 -5 -12 -5 -12 0 0 5 -15 7 -34 5 -42 -5 -146 28 -236 74 -67 35 -121 65
-130 74 -3 3 -48 37 -100 77 -231 174 -374 351 -501 618 -131 276 -229 643
-229 857 0 48 -5 90 -10 93 -19 12 -40 77 -40 125 0 26 11 87 25 134 32 111
33 248 1 229 -6 -3 -3 3 7 14 9 11 16 31 16 44 -1 13 2 55 6 93 8 67 8 68 -12
55 -27 -16 -60 -5 -44 15 14 17 51 28 51 14 0 -5 4 -6 10 -3 5 3 10 19 10 34
0 16 7 48 15 71 19 54 19 62 -3 58 -18 -3 -21 25 -7 69 5 17 3 25 -9 29 -22 8
-23 7 -31 -51 -7 -57 -14 -67 -49 -70 -33 -4 -39 16 -21 68 8 23 15 52 15 65
0 15 10 29 30 40 37 21 37 29 0 50 -16 9 -30 19 -30 22 0 3 19 26 43 50 49 53
145 92 171 71 8 -7 16 -8 19 -4 9 16 46 179 52 234 l7 57 -54 53 c-29 30 -85
76 -123 103 -39 27 -72 51 -74 53 -2 1 -1 6 3 10 4 4 11 1 16 -7 11 -18 21
-10 23 19 1 14 6 20 15 16 7 -3 20 2 28 10 19 19 34 19 34 1 0 -7 7 -19 15
-26 12 -10 15 -7 21 14 7 28 24 36 24 10 0 -8 5 -12 10 -9 6 4 17 1 25 -5 11
-10 15 -10 15 -1 0 7 4 10 10 6 5 -3 7 -13 3 -23 -4 -13 -2 -12 9 3 8 11 15
40 16 64 1 27 8 51 18 60 15 15 15 14 5 -6 -19 -38 -12 -37 19 2 36 45 37 49
9 35 -34 -19 -32 -5 5 28 40 35 36 51 -5 21 -16 -11 -29 -16 -29 -10 0 12 92
61 114 61 9 0 13 6 10 14 -3 8 0 17 7 22 7 4 10 3 5 -4 -3 -6 2 -13 12 -16 17
-6 35 2 105 41 17 10 23 9 33 -5 7 -9 16 -14 20 -9 4 4 2 7 -4 7 -7 0 -12 4
-12 10 0 10 35 8 82 -5 16 -4 26 -11 23 -15 -6 -9 25 -23 33 -15 3 3 0 5 -6 5
-7 0 -12 4 -12 8 0 12 54 6 58 -7 2 -6 20 -20 40 -30 21 -11 50 -33 66 -50 17
-17 37 -31 46 -31 9 0 25 -9 35 -20 10 -11 21 -20 25 -20 11 0 18 60 8 66 -12
8 -10 51 4 74 7 10 9 23 5 27 -24 23 -37 -82 -14 -106 10 -11 9 -12 -1 -6 -21
11 -29 45 -22 87 8 40 -4 53 -15 18 -10 -32 -24 -13 -22 30 2 22 -1 40 -5 40
-4 0 -8 -4 -8 -10 0 -15 -24 -7 -32 10 -4 9 -7 1 -8 -20 0 -30 -2 -32 -11 -17
-6 11 -8 32 -5 48 4 21 2 29 -9 29 -16 0 -38 -34 -28 -44 3 -3 1 -6 -6 -6 -7
0 -10 8 -8 18 9 31 16 77 11 64 -3 -6 -10 -9 -16 -6 -6 4 -14 0 -19 -7 -13
-21 -12 7 2 34 10 21 10 21 -5 3 -9 -11 -16 -23 -16 -28 0 -4 -4 -8 -10 -8 -5
0 -7 8 -4 18 5 16 4 16 -9 -1 -10 -12 -17 -14 -22 -8 -3 6 -1 11 6 11 10 0 10
3 1 12 -7 7 -12 21 -13 33 0 18 -1 18 -10 -3 -5 -13 -7 -28 -3 -33 3 -5 0 -9
-6 -9 -6 0 -23 20 -38 45 -27 44 -47 61 -35 28 4 -11 3 -14 -5 -9 -18 11 -14
-5 9 -43 31 -50 15 -49 -20 3 -36 52 -36 52 -13 58 21 6 114 178 109 200 -2 7
-2 10 1 5 2 -4 39 37 81 91 216 273 561 491 840 532 135 20 240 25 206 10z
m-1528 -16 c2 -6 -6 -21 -17 -34 -19 -22 -20 -22 -20 -2 0 43 26 69 37 36z
m938 -54 c13 -40 -19 -54 -48 -22 -13 14 -14 21 -5 30 18 18 46 14 53 -8z
m655 -12 c0 -4 -6 -5 -14 -2 -8 3 -12 12 -9 21 5 12 7 12 14 1 5 -7 9 -16 9
-20z m-1566 -14 c9 -22 8 -24 -9 -18 -8 4 -15 12 -15 20 0 19 16 18 24 -2z
m242 -71 c7 -10 14 -27 14 -38 0 -18 -2 -17 -26 7 -15 14 -23 31 -20 37 10 15
17 14 32 -6z m2854 -68 c0 -18 -5 -25 -19 -25 -26 0 -36 17 -21 35 19 23 40
18 40 -10z m496 -101 c-9 -8 -21 -12 -27 -8 -8 4 -9 3 -5 -4 4 -6 -4 -28 -17
-49 -32 -50 -53 -127 -67 -244 -13 -107 -5 -158 31 -182 10 -8 16 -17 11 -22
-4 -4 3 -5 16 -2 19 4 22 2 17 -11 -5 -14 -4 -15 6 -4 15 14 29 16 29 4 0 -5
-11 -14 -24 -20 -19 -8 -26 -8 -30 1 -2 7 -5 4 -5 -5 -1 -25 -16 -22 -30 5
l-11 22 6 -22 c4 -18 2 -22 -10 -17 -9 3 -16 2 -16 -4 0 -6 -11 -9 -25 -7 -16
1 -25 -3 -25 -12 0 -9 -5 -11 -12 -6 -7 4 -24 6 -37 4 -13 -1 -27 3 -32 11 -5
7 -13 14 -19 14 -5 1 -14 2 -20 3 -5 0 -14 18 -19 38 -9 33 -7 42 19 83 16 25
45 81 65 125 89 196 129 266 164 295 38 32 97 45 67 14z m-1976 -64 c0 -5 -4
-10 -10 -10 -5 0 -10 5 -10 10 0 6 5 10 10 10 6 0 10 -4 10 -10z m1495 -40 c3
-11 3 -29 0 -41 -4 -11 -1 -34 6 -51 11 -27 10 -32 -6 -44 -29 -21 -50 3 -36
40 8 18 7 32 0 44 -7 12 -7 25 0 45 12 32 27 35 36 7z m-3599 -121 c3 -6 2
-15 -2 -19 -12 -12 -38 5 -30 19 9 14 23 14 32 0z m-186 -161 c11 -12 30 -54
41 -93 11 -38 22 -77 25 -85 3 -8 7 -26 9 -40 2 -14 11 -56 20 -94 10 -45 13
-72 6 -79 -5 -5 -7 -15 -5 -22 9 -22 -100 -117 -185 -162 l-50 -25 -33 19
c-48 27 -62 65 -61 153 3 143 67 342 132 411 43 44 71 49 101 17z m2605 -38
c3 -5 1 -10 -4 -10 -6 0 -11 5 -11 10 0 6 2 10 4 10 3 0 8 -4 11 -10z m1984
-16 c3 -16 1 -17 -13 -5 -9 8 -19 11 -23 7 -4 -3 2 -13 13 -20 18 -14 18 -15
0 -35 -11 -12 -24 -21 -29 -21 -6 0 -2 9 7 19 10 10 13 21 9 24 -5 3 -14 -7
-21 -23 -15 -34 -38 -45 -38 -20 0 10 5 16 10 13 5 -4 7 1 3 10 -4 10 1 18 14
22 10 4 19 15 19 25 0 33 42 37 49 4z m-4219 -14 c0 -11 -4 -20 -9 -20 -11 0
-22 26 -14 34 12 12 23 5 23 -14z m2150 -104 c0 -2 -8 -10 -17 -17 -16 -13
-17 -12 -4 4 13 16 21 21 21 13z m-1735 -46 c3 -5 1 -10 -4 -10 -6 0 -11 5
-11 10 0 6 2 10 4 10 3 0 8 -4 11 -10z m120 -20 c8 -13 -5 -13 -25 0 -13 8
-13 10 2 10 9 0 20 -4 23 -10z m-130 -10 c3 -5 13 -10 21 -10 8 0 12 5 9 10
-3 6 -1 10 4 10 6 0 11 -9 11 -21 0 -15 -4 -19 -16 -15 -9 3 -27 9 -40 12 -13
3 -21 10 -18 15 7 12 21 11 29 -1z m254 -24 c-3 -3 -11 5 -18 17 -13 21 -12
21 5 5 10 -10 16 -20 13 -22z m1431 -1 c-7 -8 -17 -15 -23 -15 -6 0 -2 7 9 15
25 19 30 19 14 0z m-1335 -15 c3 -5 1 -10 -4 -10 -6 0 -11 5 -11 10 0 6 2 10
4 10 3 0 8 -4 11 -10z m1215 6 c0 -2 -8 -10 -17 -17 -16 -13 -17 -12 -4 4 13
16 21 21 21 13z m-1390 -17 c0 -6 -8 -9 -17 -6 -10 2 -30 -3 -45 -10 -30 -14
-91 -7 -67 8 7 4 20 4 28 -1 9 -5 20 -3 29 6 16 16 72 19 72 3z m40 -9 c0 -5
-4 -10 -9 -10 -6 0 -13 5 -16 10 -3 6 1 10 9 10 9 0 16 -4 16 -10z m1506 -11
c-15 -4 -36 -15 -46 -24 -14 -13 -22 -14 -46 -4 l-29 12 40 8 c22 4 51 12 65
17 14 5 29 7 35 4 5 -3 -3 -9 -19 -13z m17 -39 c-18 -11 -33 -24 -33 -30 0 -5
-5 -10 -11 -10 -6 0 -8 7 -5 16 5 12 1 14 -17 8 -12 -3 -19 -4 -16 0 6 6 86
33 104 35 6 0 -5 -8 -22 -19z m-113 -15 c-7 -9 -15 -13 -19 -10 -3 3 1 10 9
15 21 14 24 12 10 -5z m-1660 1 c0 -3 -4 -8 -10 -11 -5 -3 -10 -1 -10 4 0 6 5
11 10 11 6 0 10 -2 10 -4z m506 -25 c-3 -5 2 -12 11 -15 15 -6 15 -8 3 -16
-13 -8 -12 -10 3 -10 9 0 17 -5 17 -10 0 -7 -7 -7 -20 0 -11 6 -18 15 -15 20
3 5 1 11 -5 15 -10 6 -5 25 6 25 3 0 3 -4 0 -9z m549 -191 c3 -5 1 -10 -4 -10
-6 0 -11 5 -11 10 0 6 2 10 4 10 3 0 8 -4 11 -10z m2039 -108 c4 -26 3 -41 -3
-38 -5 4 -12 0 -14 -6 -4 -10 -8 -9 -16 2 -19 26 -24 61 -12 86 9 21 13 23 24
12 8 -7 17 -33 21 -56z m-2027 -24 c-3 -8 -6 -5 -6 6 -1 11 2 17 5 13 3 -3 4
-12 1 -19z m713 -20 c0 -5 4 -7 9 -3 6 3 14 -3 20 -12 9 -16 10 -16 11 5 0 14
6 22 18 22 15 0 15 -2 2 -10 -13 -9 -13 -12 3 -21 24 -14 21 -36 -5 -43 -15
-4 -27 0 -35 11 -12 15 -13 15 -19 0 -3 -9 -10 -15 -14 -12 -5 3 -11 -3 -15
-13 -4 -14 -12 -18 -30 -14 -16 3 -25 0 -25 -8 0 -9 -7 -7 -20 5 -22 19 -28 7
-7 -14 10 -10 6 -11 -17 -5 -23 6 -27 4 -21 -7 8 -12 6 -12 -8 0 -13 11 -15
17 -6 28 10 11 8 12 -7 8 -10 -4 -4 2 15 13 24 13 30 21 20 25 -8 3 -5 6 9 6
15 1 26 9 29 21 3 13 14 20 29 20 12 0 25 4 29 10 7 11 35 2 35 -12z m-703
-60 c-3 -8 -6 -5 -6 6 -1 11 2 17 5 13 3 -3 4 -12 1 -19z m554 -248 c4 -50 6
-56 34 -67 17 -6 42 -12 57 -12 15 -1 29 -5 32 -10 7 -10 -71 -7 -81 3 -4 3
-13 6 -22 6 -9 0 -27 10 -41 21 l-25 20 24 -7 24 -6 -21 27 c-24 30 -29 74
-10 93 17 17 25 -1 29 -68z m59 40 c0 -11 -4 -20 -9 -20 -14 0 -23 18 -16 30
10 17 25 11 25 -10z m-63 -136 c-3 -3 -12 -4 -19 -1 -8 3 -5 6 6 6 11 1 17 -2
13 -5z m91 -18 c70 -15 83 -23 62 -36 -23 -14 14 -24 39 -10 12 6 21 7 21 1 0
-5 -13 -12 -30 -16 -16 -4 -32 -11 -35 -16 -4 -5 -12 -9 -19 -9 -17 0 -57 35
-50 43 3 3 -4 3 -16 0 -12 -3 -33 0 -46 8 -23 12 -24 14 -7 20 17 7 16 8 -2 8
-17 1 -17 3 -5 11 18 12 12 12 88 -4z m102 -16 c0 -4 -6 -12 -12 -18 -10 -8
-13 -4 -14 13 -1 16 2 22 12 18 8 -3 14 -9 14 -13z m57 -28 c-10 -10 -14 -22
-10 -27 5 -4 2 -5 -5 -1 -14 9 2 46 20 46 6 0 4 -8 -5 -18z m551 0 c9 -1 11
-9 6 -24 -6 -20 -5 -21 10 -9 11 9 16 10 16 2 0 -6 -6 -14 -14 -17 -8 -3 -13
-15 -11 -26 6 -30 -7 -46 -17 -22 -6 14 -7 11 -5 -13 3 -26 0 -31 -15 -28 -10
2 -16 0 -13 -6 4 -5 1 -9 -4 -9 -6 0 -11 -4 -11 -10 0 -5 7 -10 15 -10 19 0
19 -2 -6 -46 -11 -20 -18 -43 -15 -50 7 -19 -1 -17 -26 6 -32 29 -38 25 -38
-24 0 -43 -18 -65 -41 -50 -5 3 -9 0 -9 -5 0 -6 -7 -11 -15 -11 -10 0 -15 10
-15 28 -1 26 -1 26 -16 7 -12 -16 -18 -18 -34 -7 -24 15 -26 7 -5 -15 13 -12
13 -18 3 -30 -11 -13 -14 -11 -26 18 -16 38 -41 61 -60 54 -17 -6 -52 16 -52
33 0 7 -5 10 -11 7 -6 -4 -21 3 -35 16 -13 12 -24 18 -24 13 0 -5 -7 0 -15 10
-15 20 -15 20 -16 0 0 -18 -1 -18 -8 1 -5 11 -4 22 0 23 14 6 10 32 -6 48 -11
11 -15 12 -15 3 0 -7 -2 -10 -5 -7 -3 3 -3 13 1 22 6 16 8 16 27 -1 19 -18 20
-17 8 4 -16 31 -14 39 11 40 18 2 19 0 8 -7 -11 -7 -12 -12 -4 -20 9 -9 16 -6
28 11 12 18 16 19 16 7 0 -22 29 -32 37 -12 5 13 8 13 29 -1 21 -14 23 -14 17
1 -5 13 -2 15 15 10 16 -5 20 -4 17 6 -4 9 5 14 27 15 17 1 34 6 37 11 3 4 18
7 34 7 16 -1 27 4 27 12 0 8 12 13 30 13 17 0 45 8 63 18 29 15 58 19 105 14z
m-1231 -44 c-3 -8 -6 -5 -6 6 -1 11 2 17 5 13 3 -3 4 -12 1 -19z m26 -36 c9
-8 17 -20 17 -25 0 -6 -11 0 -25 13 -21 19 -25 21 -25 7 0 -19 -15 -23 -25 -7
-17 27 29 37 58 12z m-7 -112 c0 -12 -4 -16 -9 -11 -5 5 -6 14 -3 20 10 15 12
14 12 -9z m-1710 -73 c28 -16 35 -121 8 -131 -9 -4 -18 -5 -18 -4 -29 49 -39
58 -65 58 -35 0 -43 17 -23 48 25 38 63 49 98 29z m2824 -7 c0 -5 -4 -10 -10
-10 -5 0 -10 5 -10 10 0 6 5 10 10 10 6 0 10 -4 10 -10z m-210 -60 c0 -5 -5
-10 -11 -10 -5 0 -7 5 -4 10 3 6 8 10 11 10 2 0 4 -4 4 -10z m-2695 -119 c0
-45 -25 -62 -63 -41 -53 30 -31 84 33 78 27 -3 30 -7 30 -37z m1715 -71 c0 -5
-2 -10 -4 -10 -3 0 -8 5 -11 10 -3 6 -1 10 4 10 6 0 11 -4 11 -10z m-1580 -40
c0 -5 -5 -10 -11 -10 -5 0 -7 5 -4 10 3 6 8 10 11 10 2 0 4 -4 4 -10z m4359
-37 c23 -82 9 -107 -39 -73 -32 23 -33 36 -8 88 17 33 36 27 47 -15z m-2939
-73 c-8 -5 -19 -10 -25 -10 -5 0 -3 5 5 10 8 5 20 10 25 10 6 0 3 -5 -5 -10z
m-1370 -14 c0 -3 -4 -8 -10 -11 -5 -3 -10 -1 -10 4 0 6 5 11 10 11 6 0 10 -2
10 -4z m19 -62 c-15 -18 -22 -13 -13 10 3 9 10 13 16 10 5 -3 4 -12 -3 -20z
m-71 -5 c-20 -13 -28 -11 -22 5 3 8 12 12 21 9 12 -5 12 -7 1 -14z m22 -39 c0
-5 -2 -10 -4 -10 -3 0 -8 5 -11 10 -3 6 -1 10 4 10 6 0 11 -4 11 -10z m-215
-20 c-3 -5 -14 -10 -23 -10 -15 0 -15 2 -2 10 20 13 33 13 25 0z m-45 -3 c0
-2 -10 -12 -21 -23 -22 -19 -22 -19 -10 4 10 18 31 31 31 19z m225 -27 c-3 -5
-13 -10 -21 -10 -8 0 -12 5 -9 10 3 6 13 10 21 10 8 0 12 -4 9 -10z m-80 -18
c-3 -3 -11 0 -18 7 -9 10 -8 11 6 5 10 -3 15 -9 12 -12z m-165 -12 c-14 -10
-27 -16 -30 -13 -6 6 30 33 44 33 6 0 0 -9 -14 -20z m19 -22 c-8 -7 -22 -22
-32 -33 l-19 -20 4 20 c2 11 12 25 23 32 26 16 43 16 24 1z m178 -40 c-3 -8
-6 -5 -6 6 -1 11 2 17 5 13 3 -3 4 -12 1 -19z m53 -13 c0 -2 -10 -10 -22 -16
-21 -11 -22 -11 -9 4 13 16 31 23 31 12z m-351 -89 c-9 -8 -10 -7 -5 7 3 10 7
24 7 30 1 7 3 4 6 -7 3 -10 -1 -23 -8 -30z m61 5 c0 -5 -7 -12 -16 -15 -14 -5
-15 -4 -4 9 14 17 20 19 20 6z m270 5 c0 -3 -4 -8 -10 -11 -5 -3 -10 -1 -10 4
0 6 5 11 10 11 6 0 10 -2 10 -4z m2037 -50 c-6 -8 -15 -12 -19 -9 -4 2 -2 10
5 17 6 8 15 12 19 9 4 -2 2 -10 -5 -17z m-2610 -18 c-3 -8 -6 -5 -6 6 -1 11 2
17 5 13 3 -3 4 -12 1 -19z m563 -6 c0 -18 -27 -40 -55 -45 -36 -6 -65 8 -65
31 1 15 3 15 16 -3 10 -12 18 -16 21 -9 2 7 12 10 22 7 9 -2 23 3 30 11 14 17
31 21 31 8z m2025 -62 c-4 -12 -9 -19 -12 -17 -3 3 -2 15 2 27 4 12 9 19 12
17 3 -3 2 -15 -2 -27z m-2038 -61 c-24 -33 -32 -36 -41 -13 -9 22 9 42 39 42
l24 0 -22 -29z m-80 -51 c-3 -8 -6 -5 -6 6 -1 11 2 17 5 13 3 -3 4 -12 1 -19z
m64 -65 c-10 -17 -10 -16 -11 3 0 23 13 41 18 25 2 -6 -1 -18 -7 -28z m-61
-20 c0 10 5 17 10 17 12 0 12 -2 0 -35 -8 -22 -13 -25 -24 -16 -8 7 -16 21
-19 32 -5 20 -5 20 14 3 17 -16 19 -16 19 -1z m150 -47 c0 -15 -11 -33 -27
-45 -33 -27 -43 -18 -14 13 12 13 21 27 20 32 -3 16 1 24 11 24 6 0 10 -11 10
-24z m870 -36 c0 -5 -7 -10 -16 -10 -8 0 -12 5 -9 10 3 6 10 10 16 10 5 0 9
-4 9 -10z m-990 -4 c0 -3 -4 -8 -10 -11 -5 -3 -10 -1 -10 4 0 6 5 11 10 11 6
0 10 -2 10 -4z m22 -48 c-9 -9 -15 -9 -24 0 -9 9 -7 12 12 12 19 0 21 -3 12
-12z m28 -52 c0 -3 -4 -8 -10 -11 -5 -3 -10 -1 -10 4 0 6 5 11 10 11 6 0 10
-2 10 -4z m1826 -31 c-11 -8 -29 -15 -40 -14 -15 0 -11 4 14 14 45 17 49 17
26 0z m-1772 -21 c9 -23 7 -36 -3 -30 -12 8 -21 46 -11 46 4 0 11 -7 14 -16z
m49 -24 c-8 -29 -21 -25 -15 5 2 14 8 23 12 20 5 -3 6 -14 3 -25z m-23 -56 c0
-8 -4 -14 -9 -14 -11 0 -22 26 -14 34 9 9 23 -3 23 -20z m17 -66 c-3 -8 -6 -5
-6 6 -1 11 2 17 5 13 3 -3 4 -12 1 -19z m40 -40 c-3 -8 -6 -5 -6 6 -1 11 2 17
5 13 3 -3 4 -12 1 -19z m1410 -58 c4 -12 3 -13 -5 -1 -5 7 -15 10 -21 7 -6 -4
-11 -2 -11 4 0 17 33 8 37 -10z m-1677 -48 c0 -15 -2 -15 -10 -2 -13 20 -13
33 0 25 6 -3 10 -14 10 -23z m1704 12 c9 -24 7 -27 -9 -10 -17 17 -19 26 -6
26 5 0 12 -7 15 -16z m72 -3 c-8 -12 -46 -21 -46 -11 0 5 10 11 23 13 12 2 23
5 25 6 2 0 1 -3 -2 -8z m-26 -46 c-7 -9 -15 -13 -19 -10 -3 3 1 10 9 15 21 14
24 12 10 -5z m-1410 -11 c0 -8 -4 -12 -10 -9 -5 3 -10 10 -10 16 0 5 5 9 10 9
6 0 10 -7 10 -16z m61 -37 c-8 -8 -11 -7 -11 4 0 20 13 34 18 19 3 -7 -1 -17
-7 -23z m1326 17 c-3 -3 -12 -4 -19 -1 -8 3 -5 6 6 6 11 1 17 -2 13 -5z m-10
-40 c-3 -3 -12 -4 -19 -1 -8 3 -5 6 6 6 11 1 17 -2 13 -5z m-46 -43 c-8 -5
-10 -15 -7 -22 4 -8 0 -5 -8 5 -15 19 -16 19 -16 2 0 -16 -2 -17 -16 -5 -14
12 -12 15 17 25 36 12 53 9 30 -5z m39 9 c0 -5 -5 -10 -11 -10 -5 0 -7 5 -4
10 3 6 8 10 11 10 2 0 4 -4 4 -10z m-51 -72 c-5 -10 -12 -18 -14 -18 -3 0 -5
8 -5 18 0 10 7 19 14 19 11 0 13 -5 5 -19z m4 -35 c3 -5 -6 -9 -20 -10 -19 -1
-22 1 -12 8 17 11 26 11 32 2z m12 -73 c-3 -5 -12 -10 -18 -10 -7 0 -6 4 3 10
19 12 23 12 15 0z m50 -65 c0 -26 -10 -34 -18 -12 -5 14 2 37 12 37 3 0 6 -11
6 -25z m515 -319 c0 -2 -7 -6 -15 -10 -8 -3 -15 -1 -15 4 0 6 7 10 15 10 8 0
15 -2 15 -4z m-1835 -56 c-3 -5 -12 -10 -18 -10 -7 0 -6 4 3 10 19 12 23 12
15 0z m1730 -70 c-3 -5 -10 -10 -16 -10 -5 0 -9 5 -9 10 0 6 7 10 16 10 8 0
12 -4 9 -10z m-55 -18 c0 -15 -11 -21 -27 -15 -12 5 -12 7 -1 14 17 11 28 11
28 1z m50 -17 c-7 -8 -17 -15 -23 -15 -6 0 -2 7 9 15 25 19 30 19 14 0z m-105
-5 c-3 -5 -14 -10 -23 -10 -15 0 -15 2 -2 10 20 13 33 13 25 0z m-85 -10 c0
-5 -2 -10 -4 -10 -3 0 -8 5 -11 10 -3 6 -1 10 4 10 6 0 11 -4 11 -10z m-93
-62 c-3 -8 -6 -5 -6 6 -1 11 2 17 5 13 3 -3 4 -12 1 -19z m-577 -134 c0 -19
-37 -62 -61 -71 -16 -6 -29 -9 -29 -6 0 13 22 43 33 43 7 0 18 9 25 20 11 19
32 28 32 14z m-14 -79 c-3 -8 -10 -15 -15 -15 -5 0 -4 11 2 25 12 25 23 16 13
-10z"/>
<path d="M2136 4904 c-9 -8 -16 -11 -16 -5 0 16 -14 13 -38 -8 -27 -23 -28
-31 -2 -24 11 3 20 13 20 22 0 12 2 13 9 3 6 -10 13 -11 34 -1 15 7 27 16 27
21 0 13 -17 9 -34 -8z"/>
<path d="M2400 4650 c0 -5 9 -10 19 -10 11 0 23 5 26 10 4 6 -5 10 -19 10 -14
0 -26 -4 -26 -10z"/>
<path d="M2375 4630 c-3 -5 -1 -10 4 -10 6 0 11 5 11 10 0 6 -2 10 -4 10 -3 0
-8 -4 -11 -10z"/>
<path d="M2600 4509 c0 -5 5 -7 10 -4 6 3 10 8 10 11 0 2 -4 4 -10 4 -5 0 -10
-5 -10 -11z"/>
<path d="M2500 4480 c0 -5 4 -10 9 -10 6 0 13 5 16 10 3 6 -1 10 -9 10 -9 0
-16 -4 -16 -10z"/>
<path d="M1835 4300 c85 -21 90 -22 80 -11 -5 5 -35 12 -65 15 -51 5 -52 5
-15 -4z"/>
<path d="M1850 4216 c0 -11 114 -55 157 -62 65 -9 52 1 -48 36 -80 28 -109 35
-109 26z"/>
<path d="M1455 4149 c-4 -6 -5 -12 -2 -15 2 -3 7 2 10 11 7 17 1 20 -8 4z"/>
<path d="M1605 4130 c-4 -6 -4 -14 -1 -17 3 -4 6 -1 6 5 0 17 18 15 23 -3 4
-12 5 -11 3 1 -1 21 -21 29 -31 14z"/>
<path d="M1650 4110 c0 -5 6 -10 14 -10 8 0 18 5 21 10 3 6 -3 10 -14 10 -12
0 -21 -4 -21 -10z"/>
<path d="M1740 4060 c0 -5 5 -10 10 -10 6 0 10 5 10 10 0 6 -4 10 -10 10 -5 0
-10 -4 -10 -10z"/>
<path d="M1357 3959 c7 -7 15 -10 18 -7 3 3 -2 9 -12 12 -14 6 -15 5 -6 -5z"/>
<path d="M1305 3940 c3 -5 14 -10 23 -10 15 0 15 2 2 10 -20 13 -33 13 -25 0z"/>
<path d="M1690 3920 c0 -5 5 -10 10 -10 6 0 10 5 10 10 0 6 -4 10 -10 10 -5 0
-10 -4 -10 -10z"/>
<path d="M1715 3900 c-26 -28 -15 -31 14 -3 13 13 20 23 14 23 -5 0 -18 -9
-28 -20z"/>
<path d="M1088 3883 c7 -3 16 -2 19 1 4 3 -2 6 -13 5 -11 0 -14 -3 -6 -6z"/>
<path d="M1732 3870 c0 -14 2 -19 5 -12 2 6 2 18 0 25 -3 6 -5 1 -5 -13z"/>
<path d="M1766 3857 c-11 -8 -16 -20 -13 -28 4 -11 6 -11 6 2 1 9 11 21 24 27
12 6 17 11 11 11 -5 1 -18 -5 -28 -12z"/>
<path d="M1052 3798 c-5 -7 -13 -23 -16 -35 -4 -13 -13 -23 -20 -23 -8 0 -20
-8 -27 -17 -12 -15 -12 -16 4 -10 9 3 17 2 17 -4 0 -18 21 2 31 29 6 15 10 29
10 32 0 3 8 13 16 23 9 9 11 17 6 17 -6 0 -15 -6 -21 -12z"/>
<path d="M1704 3791 c7 -11 46 -35 46 -28 0 3 -12 12 -26 22 -15 9 -23 12 -20
6z"/>
<path d="M1673 3777 c4 -10 7 -23 7 -28 0 -14 38 -49 53 -49 6 0 3 7 -8 16
-13 10 -16 17 -9 22 7 4 0 16 -20 32 -24 20 -29 21 -23 7z"/>
<path d="M1838 3753 c7 -3 16 -2 19 1 4 3 -2 6 -13 5 -11 0 -14 -3 -6 -6z"/>
<path d="M1752 3741 c2 -7 7 -12 11 -12 12 1 9 15 -3 20 -7 2 -11 -2 -8 -8z"/>
<path d="M1795 3740 c-3 -5 -1 -10 4 -10 6 0 11 5 11 10 0 6 -2 10 -4 10 -3 0
-8 -4 -11 -10z"/>
<path d="M1818 3703 c7 -3 16 -2 19 1 4 3 -2 6 -13 5 -11 0 -14 -3 -6 -6z"/>
<path d="M1850 3696 c0 -2 7 -6 15 -10 8 -3 15 -1 15 4 0 6 -7 10 -15 10 -8 0
-15 -2 -15 -4z"/>
<path d="M1011 3672 c-17 -31 -13 -40 5 -14 9 13 14 26 11 29 -3 2 -10 -4 -16
-15z"/>
<path d="M1548 3648 c-21 -6 -38 -14 -38 -18 0 -4 -9 -6 -20 -3 -16 4 -20 0
-21 -18 0 -13 -3 -18 -6 -11 -8 20 -23 14 -23 -10 l-1 -23 -18 22 c-20 24 -33
21 -24 -5 5 -11 2 -14 -10 -9 -11 4 -17 1 -17 -7 0 -19 12 -27 24 -17 8 6 28
3 56 -10 47 -21 63 -37 53 -53 -3 -5 -1 -6 5 -2 20 12 13 -5 -10 -26 -18 -15
-19 -18 -5 -14 9 3 17 1 17 -4 0 -6 8 -10 18 -10 13 0 14 -2 4 -9 -8 -4 -14
-12 -15 -17 -1 -5 -7 -8 -14 -6 -6 1 -14 -2 -17 -7 -4 -5 -21 -5 -43 -1 -26 6
-40 5 -44 -2 -6 -9 -12 -8 -24 2 -12 10 -18 11 -24 2 -4 -7 -12 -8 -21 -2 -9
6 -18 3 -26 -8 -7 -10 -27 -16 -55 -17 -23 -1 -44 -6 -47 -13 -2 -8 -12 -7
-33 4 -30 15 -30 15 -19 -7 8 -14 8 -19 1 -15 -6 4 -11 3 -11 -3 0 -5 4 -12 9
-16 5 -3 7 -25 5 -49 -4 -33 0 -56 16 -85 11 -23 23 -41 26 -41 2 0 0 9 -6 19
-26 49 6 112 72 144 43 21 50 14 34 -31 -18 -49 -6 -127 26 -175 23 -36 43
-47 86 -47 15 0 22 -6 21 -17 0 -11 -3 -13 -6 -5 -3 7 -22 12 -47 12 -23 0
-47 5 -54 12 -7 7 -12 9 -12 5 0 -4 -10 -3 -21 4 -17 9 -23 8 -30 -2 -16 -25
-10 -29 31 -23 29 5 40 3 40 -6 0 -7 8 -10 20 -7 11 3 20 1 20 -4 0 -6 6 -9
13 -8 6 1 21 1 32 0 17 -1 18 -3 5 -11 -8 -5 -11 -10 -6 -10 5 0 18 7 28 17
11 9 18 11 18 5 0 -7 15 -12 33 -13 l32 -1 -29 -9 c-17 -4 -34 -15 -38 -24 -5
-8 -19 -15 -32 -15 -12 0 -40 -9 -62 -19 -21 -11 -43 -17 -48 -14 -5 3 -7 0
-4 -8 6 -19 89 -24 148 -9 67 17 200 82 263 129 56 41 110 108 128 159 6 19 5
43 -6 82 -9 30 -16 62 -16 70 -1 29 -21 70 -35 70 -8 0 -11 6 -8 15 4 8 1 22
-6 30 -7 8 -10 22 -6 30 3 8 1 15 -4 15 -6 0 -10 6 -10 14 0 8 -7 21 -15 30
-9 8 -17 19 -18 23 -1 4 -5 7 -9 6 -5 -2 -8 6 -8 17 0 12 -7 20 -16 20 -9 0
-22 6 -28 14 -17 21 -66 30 -66 11 0 -8 -5 -15 -11 -15 -6 0 -8 9 -4 20 3 11
5 20 3 19 -2 -1 -20 -6 -40 -11z m-205 -442 c6 -15 -1 -26 -15 -26 -4 0 -8 9
-8 20 0 23 15 27 23 6z m162 -236 c-3 -5 -11 -10 -16 -10 -6 0 -7 5 -4 10 3 6
11 10 16 10 6 0 7 -4 4 -10z m-95 -34 c0 -3 -4 -8 -10 -11 -5 -3 -10 -1 -10 4
0 6 5 11 10 11 6 0 10 -2 10 -4z"/>
<path d="M1800 3646 c0 -8 5 -18 10 -21 6 -3 10 1 10 9 0 8 -4 18 -10 21 -5 3
-10 -1 -10 -9z"/>
<path d="M1875 3650 c3 -5 8 -10 11 -10 2 0 4 5 4 10 0 6 -5 10 -11 10 -5 0
-7 -4 -4 -10z"/>
<path d="M1840 3646 c0 -2 8 -10 18 -17 15 -13 16 -12 3 4 -13 16 -21 21 -21
13z"/>
<path d="M770 3626 c0 -2 7 -7 16 -10 8 -3 12 -2 9 4 -6 10 -25 14 -25 6z"/>
<path d="M2080 3515 c0 -7 30 -13 34 -7 3 4 -4 9 -15 9 -10 1 -19 0 -19 -2z"/>
<path d="M2097 3473 c-4 -3 -7 -11 -7 -17 0 -6 5 -5 12 2 6 6 9 14 7 17 -3 3
-9 2 -12 -2z"/>
<path d="M2121 3458 c-1 -9 -6 -18 -12 -20 -7 -2 -10 -11 -7 -18 3 -11 8 -9
17 8 7 13 10 28 7 35 -2 7 -5 5 -5 -5z"/>
<path d="M1166 3130 c8 -31 10 -33 24 -28 8 2 4 13 -10 28 l-21 25 7 -25z"/>
<path d="M2196 3121 c-4 -5 -1 -13 5 -16 6 -4 14 -17 19 -29 8 -20 9 -20 9 -1
0 25 -25 60 -33 46z"/>
<path d="M1215 3080 c-4 -6 -4 -10 -1 -10 2 0 11 -3 20 -6 9 -3 16 -2 16 4 0
14 -28 23 -35 12z"/>
<path d="M2190 3005 c0 -9 5 -15 11 -13 6 2 11 8 11 13 0 5 -5 11 -11 13 -6 2
-11 -4 -11 -13z"/>
<path d="M2162 2990 c0 -14 2 -19 5 -12 2 6 2 18 0 25 -3 6 -5 1 -5 -13z"/>
<path d="M827 2984 c-4 -4 -7 -17 -7 -28 1 -19 1 -20 11 -3 11 19 8 43 -4 31z"/>
<path d="M2245 2930 c3 -5 10 -10 16 -10 5 0 9 5 9 10 0 6 -7 10 -16 10 -8 0
-12 -4 -9 -10z"/>
<path d="M2170 2680 c0 -5 7 -10 16 -10 8 0 12 5 9 10 -3 6 -10 10 -16 10 -5
0 -9 -4 -9 -10z"/>
<path d="M1423 2617 c-33 -49 -65 -126 -57 -139 4 -6 3 -8 -3 -5 -6 4 -14 -4
-17 -18 -7 -27 -50 -78 -59 -69 -3 3 -17 -12 -31 -34 -14 -22 -34 -43 -45 -47
-11 -3 -23 -15 -26 -26 -4 -10 -11 -19 -17 -19 -11 0 -47 -40 -48 -53 0 -5 5
-5 11 -1 6 3 4 -5 -6 -19 -9 -14 -22 -28 -30 -30 -8 -4 -12 -20 -11 -47 1 -23
-1 -43 -6 -46 -15 -10 -8 -24 12 -24 11 0 20 5 20 10 0 6 9 10 20 10 11 0 20
4 20 9 0 14 89 121 135 160 86 77 143 140 163 183 19 39 21 54 15 141 -3 53
-9 97 -12 97 -3 0 -16 -15 -28 -33z"/>
<path d="M2135 2551 c-3 -6 -11 -9 -16 -6 -5 4 -9 -1 -9 -9 0 -9 3 -16 6 -16
10 0 37 31 31 36 -3 3 -8 0 -12 -5z"/>
<path d="M2610 2111 c0 -5 5 -13 10 -16 6 -3 10 -2 10 4 0 5 -4 13 -10 16 -5
3 -10 2 -10 -4z"/>
<path d="M2520 1899 c0 -5 5 -7 10 -4 6 3 10 8 10 11 0 2 -4 4 -10 4 -5 0 -10
-5 -10 -11z"/>
<path d="M1262 1828 c-18 -18 -15 -51 4 -44 9 3 27 6 41 6 22 0 24 2 13 16
-22 25 -46 34 -58 22z"/>
<path d="M1376 1752 c11 -10 23 -24 25 -31 4 -11 7 -11 16 0 9 11 3 18 -25 32
-36 17 -36 17 -16 -1z"/>
<path d="M2280 1476 c0 -3 9 -10 20 -16 11 -6 20 -8 20 -6 0 3 -9 10 -20 16
-11 6 -20 8 -20 6z"/>
<path d="M2790 1470 c-13 -8 -12 -10 3 -10 9 0 17 5 17 10 0 12 -1 12 -20 0z"/>
<path d="M2551 1414 c0 -11 3 -14 6 -6 3 7 2 16 -1 19 -3 4 -6 -2 -5 -13z"/>
<path d="M2415 1390 c3 -5 8 -10 11 -10 2 0 4 5 4 10 0 6 -5 10 -11 10 -5 0
-7 -4 -4 -10z"/>
<path d="M2447 1359 c-3 -13 -1 -19 6 -16 15 5 22 37 9 37 -5 0 -12 -9 -15
-21z"/>
<path d="M2090 1210 c0 -5 5 -10 10 -10 6 0 10 5 10 10 0 6 -4 10 -10 10 -5 0
-10 -4 -10 -10z"/>
<path d="M2065 1120 c-3 -5 1 -10 9 -10 9 0 16 5 16 10 0 6 -4 10 -9 10 -6 0
-13 -4 -16 -10z"/>
<path d="M2090 849 c0 -5 5 -7 10 -4 6 3 10 8 10 11 0 2 -4 4 -10 4 -5 0 -10
-5 -10 -11z"/>
<path d="M2650 540 c-9 -6 -10 -10 -3 -10 6 0 15 5 18 10 8 12 4 12 -15 0z"/>
<path d="M2400 423 c0 -13 5 -23 10 -23 13 0 13 11 0 30 -8 12 -10 11 -10 -7z"/>
<path d="M2430 419 c0 -5 5 -7 10 -4 6 3 10 8 10 11 0 2 -4 4 -10 4 -5 0 -10
-5 -10 -11z"/>
<path d="M2375 410 c-3 -5 -1 -10 4 -10 6 0 11 5 11 10 0 6 -2 10 -4 10 -3 0
-8 -4 -11 -10z"/>
<path d="M2181 244 c0 -11 3 -14 6 -6 3 7 2 16 -1 19 -3 4 -6 -2 -5 -13z"/>
<path d="M287 4143 c-4 -3 -7 -11 -7 -17 0 -6 5 -5 12 2 6 6 9 14 7 17 -3 3
-9 2 -12 -2z"/>
<path d="M245 4101 c-3 -5 -1 -12 5 -16 5 -3 10 1 10 9 0 18 -6 21 -15 7z"/>
<path d="M295 4101 c-19 -8 -19 -8 3 -15 35 -11 26 -21 -20 -21 l-43 0 0 -52
c0 -33 -5 -57 -15 -65 -12 -11 -12 -11 -2 3 6 9 9 19 5 22 -12 13 -23 7 -23
-12 0 -23 25 -47 35 -31 3 5 12 10 18 10 7 0 6 -4 -3 -10 -8 -5 -15 -20 -16
-32 -1 -13 -5 -31 -9 -40 -5 -13 -3 -18 9 -18 9 0 16 -7 16 -15 0 -8 8 -15 18
-15 26 0 93 42 115 71 21 29 25 93 8 138 -5 14 -12 38 -15 54 -4 15 -11 27
-17 27 -6 0 -8 -9 -4 -20 5 -14 2 -20 -10 -20 -9 0 -15 6 -14 13 5 37 -1 41
-36 28z m-29 -86 c0 -19 -4 -35 -8 -35 -10 0 -11 54 -1 63 9 10 9 10 9 -28z
m84 19 c0 -2 -9 -4 -20 -4 -11 0 -20 4 -20 9 0 5 9 7 20 4 11 -3 20 -7 20 -9z"/>
<path d="M2910 3520 c0 -5 7 -7 15 -4 8 4 15 8 15 10 0 2 -7 4 -15 4 -8 0 -15
-4 -15 -10z"/>
<path d="M2845 3080 c-3 -5 -1 -10 4 -10 6 0 11 5 11 10 0 6 -2 10 -4 10 -3 0
-8 -4 -11 -10z"/>
<path d="M3100 2916 c0 -9 5 -16 10 -16 6 0 10 4 10 9 0 6 -4 13 -10 16 -5 3
-10 -1 -10 -9z"/>
<path d="M3434 2909 c-3 -6 0 -17 8 -25 12 -12 14 -10 16 11 2 26 -11 34 -24
14z"/>
<path d="M3060 2901 c0 -5 5 -13 10 -16 6 -3 10 -2 10 4 0 5 -4 13 -10 16 -5
3 -10 2 -10 -4z"/>
<path d="M3367 2793 c-4 -3 -7 -11 -7 -17 0 -6 5 -5 12 2 6 6 9 14 7 17 -3 3
-9 2 -12 -2z"/>
<path d="M569 1883 c-13 -16 -12 -17 4 -4 9 7 17 15 17 17 0 8 -8 3 -21 -13z"/>
<path d="M465 4701 c-6 -11 9 -23 19 -14 9 9 7 23 -3 23 -6 0 -12 -4 -16 -9z"/>
<path d="M374 4566 c-8 -21 4 -52 15 -40 15 15 17 47 4 51 -7 3 -16 -2 -19
-11z"/>
</g>
</svg>
